<svg xmlns="http://www.w3.org/2000/svg" viewBox="0 -56 1160 976" role="img" aria-label="AWS architecture: users reach Cloudflare, which reaches a single EC2 instance in a public subnet through an outbound Cloudflare Tunnel. The instance talks to RDS MySQL in private subnets, two S3 buckets, SSM Parameter Store and CloudWatch.">
<title>OneVoice Nextcloud on AWS — us-east-1</title>
<style>
svg{
  --ground:#F1F3F6; --surface:#FFFFFF; --surface-2:#E6EAF0;
  --ink:#141920; --muted:#59636F; --line-strong:#A9B2BF;
  --tunnel:#B0602A; --managed:#42517A; --risk:#A03D28; --ok:#346C4B;
  --sans:ui-sans-serif,-apple-system,"Segoe UI",Helvetica,Arial,sans-serif;
  --mono:ui-monospace,SFMono-Regular,Consolas,"Liberation Mono",monospace;
}
@media (prefers-color-scheme:dark){
  svg{
    --ground:#0D1116; --surface:#161B22; --surface-2:#1F252E;
    --ink:#E2E7EE; --muted:#8E99A8; --line-strong:#414B58;
    --tunnel:#E39159; --managed:#93A2D4; --risk:#E0836B; --ok:#6EBB8C;
  }
}
.bg{fill:var(--ground)}
text{font-family:var(--mono);fill:var(--ink)}
.h1{font-family:var(--sans);font-size:16px;font-weight:700;letter-spacing:-.01em}
.h2{font-size:10.5px;fill:var(--muted);letter-spacing:.08em}
.t-ttl{font-family:var(--sans);font-size:13px;font-weight:600}
.t-sub{font-size:10.5px;fill:var(--muted)}
.t-chip{font-size:10.5px}
.t-frame{font-family:var(--sans);font-size:10.5px;font-weight:600;fill:var(--muted);letter-spacing:.12em}
.t-lab{font-size:10px;fill:var(--muted)}
.t-tun{font-size:10px;fill:var(--tunnel)}
.t-risk{font-size:10.5px;fill:var(--risk)}
.t-ok{font-size:10.5px;fill:var(--ok)}
.box{fill:var(--surface);stroke:var(--line-strong);stroke-width:1}
.box-2{fill:var(--surface-2);stroke:var(--line-strong);stroke-width:1}
.box-m{fill:var(--surface);stroke:var(--managed);stroke-width:1.5}
.frame{fill:none;stroke:var(--line-strong);stroke-width:1;stroke-dasharray:5 4}
.frame-solid{fill:none;stroke:var(--line-strong);stroke-width:1.5}
.chipbox{fill:var(--surface-2);stroke:none}
.link{stroke:var(--line-strong);stroke-width:1.4;fill:none}
.tun{stroke:var(--tunnel);stroke-width:2;fill:none}
marker path{fill:var(--line-strong)}
marker.mt path{fill:var(--tunnel)}
</style>
<defs>
  <marker id="ah1" viewBox="0 0 10 10" refX="9" refY="5" markerWidth="7" markerHeight="7" orient="auto-start-reverse"><path d="M0 0 L10 5 L0 10 z"/></marker>
  <marker id="aht1" class="mt" viewBox="0 0 10 10" refX="9" refY="5" markerWidth="7" markerHeight="7" orient="auto-start-reverse"><path d="M0 0 L10 5 L0 10 z"/></marker>
</defs>

<rect class="bg" x="0" y="-56" width="1160" height="976"/>
<text class="h1" x="40" y="-30">OneVoice Nextcloud — AWS deployment</text>
<text class="h2" x="40" y="-12">ONEVOICE.KNOCH.DEV · US-EAST-1 · TERRAFORM + PACKER GOLDEN AMI</text>

<rect class="box" x="40" y="28" width="130" height="56"/>
<text class="t-ttl" x="56" y="52">People</text>
<text class="t-sub" x="56" y="68">browser · desktop</text>

<line class="link" x1="170" y1="56" x2="302" y2="56" marker-end="url(#ah1)"/>
<text class="t-lab" x="236" y="46" text-anchor="middle">onevoice.knoch.dev</text>

<rect class="box" x="310" y="28" width="220" height="56"/>
<text class="t-ttl" x="326" y="52">Cloudflare edge</text>
<text class="t-sub" x="326" y="68">TLS terminates here</text>

<rect class="frame" x="40" y="120" width="1080" height="780"/>
<text class="t-frame" x="54" y="142">AWS ACCOUNT · US-EAST-1</text>

<rect class="frame-solid" x="64" y="166" width="520" height="650"/>
<text class="t-frame" x="78" y="188">VPC · 10.30.0.0/16</text>

<rect class="box" x="88" y="200" width="110" height="42"/>
<text class="t-chip" x="103" y="226">IGW</text>

<rect class="frame" x="88" y="262" width="472" height="280"/>
<text class="t-frame" x="102" y="282">SUBNET PUB-A · 10.30.1.0/28 · AZ-A</text>

<rect class="box-m" x="110" y="290" width="300" height="64"/>
<text class="t-chip" x="124" y="310">nextcloud-sg</text>
<text class="t-risk" x="124" y="326">in 80/443 ← 0.0.0.0/0 (unused)</text>
<text class="t-sub" x="124" y="342">in 22 ← 70.21.84.34/32 · out all</text>

<rect class="box" x="110" y="376" width="428" height="148"/>
<text class="t-ttl" x="124" y="398">EC2 · t3.medium</text>
<text class="t-sub" x="124" y="413">booted from the Packer golden AMI</text>
<rect class="chipbox" x="124" y="424" width="196" height="26"/>
<text class="t-chip" x="134" y="441">nginx + rate-limit</text>
<rect class="chipbox" x="328" y="424" width="196" height="26"/>
<text class="t-chip" x="338" y="441">cloudflared</text>
<rect class="chipbox" x="124" y="456" width="196" height="26"/>
<text class="t-chip" x="134" y="473">php-fpm 8.2</text>
<rect class="chipbox" x="328" y="456" width="196" height="26"/>
<text class="t-chip" x="338" y="473">CloudWatch agent</text>
<rect class="chipbox" x="124" y="488" width="196" height="26"/>
<text class="t-chip" x="134" y="505">Nextcloud 30</text>
<rect class="chipbox" x="328" y="488" width="196" height="26"/>
<text class="t-chip" x="338" y="505">MCP + maint. timer</text>

<line class="tun" x1="470" y1="376" x2="470" y2="88" marker-end="url(#aht1)"/>
<text class="t-tun" x="482" y="232">outbound 443</text>
<text class="t-tun" x="482" y="246">requests ride back down</text>

<rect class="frame" x="88" y="572" width="472" height="150"/>
<text class="t-frame" x="102" y="592">PRIV-A 10.30.3.0/28 · PRIV-B 10.30.4.0/28</text>

<line class="link" x1="216" y1="524" x2="216" y2="608" marker-end="url(#ah1)"/>
<text class="t-lab" x="226" y="570">3306</text>

<rect class="box" x="110" y="610" width="212" height="92"/>
<text class="t-ttl" x="124" y="632">RDS MySQL</text>
<text class="t-sub" x="124" y="648">db.t3.micro · single-AZ</text>
<text class="t-sub" x="124" y="664">20 → 100 GB gp3, encrypted</text>
<text class="t-sub" x="124" y="680">7-day automated backups</text>

<rect class="box-m" x="340" y="610" width="198" height="92"/>
<text class="t-chip" x="354" y="632">db-sg</text>
<text class="t-sub" x="354" y="648">3306 ← nextcloud-sg</text>
<text class="t-sub" x="354" y="664">no CIDR rule at all</text>
<text class="t-ok" x="354" y="682">not publicly accessible</text>

<rect class="box" x="88" y="746" width="472" height="54"/>
<text class="t-chip" x="102" y="766">S3 gateway endpoint</text>
<text class="t-sub" x="102" y="782">routed on priv-rt only — the instance sits in pub-a,</text>
<text class="t-sub" x="102" y="795">so its S3 traffic leaves through the IGW instead</text>

<rect class="box" x="716" y="200" width="380" height="96"/>
<text class="t-ttl" x="732" y="222">S3 · primary object store</text>
<text class="t-sub" x="732" y="240">onevoice-prod-nextcloud-bucket</text>
<text class="t-sub" x="732" y="256">every object keyed urn:oid:&lt;fileid&gt;</text>
<text class="t-sub" x="732" y="272">versioned · lifecycle to IA at 30d, expire 365d</text>
<text class="t-ok" x="732" y="288">Object Lock GOVERNANCE · 10 years</text>

<rect class="box" x="716" y="316" width="380" height="84"/>
<text class="t-ttl" x="732" y="338">S3 · migration bucket</text>
<text class="t-sub" x="732" y="356">mounted through Nextcloud External Storage</text>
<text class="t-sub" x="732" y="372">addressed by real path, not by fileid</text>
<text class="t-sub" x="732" y="390">SSE-AES256 · public access blocked</text>

<rect class="box" x="716" y="420" width="380" height="84"/>
<text class="t-ttl" x="732" y="442">SSM Parameter Store</text>
<text class="t-sub" x="732" y="460">8 SecureStrings: db + admin passwords, tunnel</text>
<text class="t-sub" x="732" y="476">token, MCP creds, GitHub PAT, migration keys</text>
<text class="t-sub" x="732" y="494">three of them must pre-exist or first boot fails</text>

<rect class="box" x="716" y="524" width="380" height="96"/>
<text class="t-ttl" x="732" y="546">CloudWatch</text>
<text class="t-sub" x="732" y="564">5 alarms: status check, CPU, CPU credits,</text>
<text class="t-sub" x="732" y="580">memory, disk · nextcloud-ops dashboard</text>
<text class="t-sub" x="732" y="598">memory and disk arrive under CWAgent,</text>
<text class="t-sub" x="732" y="614">not AWS/EC2 — the agent is the only source</text>

<line class="link" x1="906" y1="620" x2="906" y2="648" marker-end="url(#ah1)"/>
<text class="t-lab" x="916" y="640">alarm</text>

<rect class="box" x="716" y="650" width="380" height="72"/>
<text class="t-ttl" x="732" y="672">SNS · ops-alerts</text>
<text class="t-sub" x="732" y="690">one topic, alarm and OK actions both wired</text>
<text class="t-sub" x="732" y="708">no paging, no escalation — email only</text>

<line class="link" x1="906" y1="722" x2="906" y2="750" marker-end="url(#ah1)"/>
<text class="t-lab" x="916" y="742">2 addresses</text>

<rect class="box-2" x="716" y="752" width="380" height="56"/>
<text class="t-chip" x="732" y="774">two ops mailboxes</text>
<text class="t-sub" x="732" y="792">subscription confirmed by hand, once</text>

<line class="link" x1="538" y1="400" x2="714" y2="248" marker-end="url(#ah1)"/>
<text class="t-lab" x="627" y="316" text-anchor="middle">IAM role · no static keys</text>

<line class="link" x1="538" y1="432" x2="714" y2="358" marker-end="url(#ah1)"/>
<text class="t-lab" x="627" y="388" text-anchor="middle">IAM user access key</text>

<line class="link" x1="538" y1="464" x2="714" y2="462" marker-end="url(#ah1)"/>
<text class="t-lab" x="627" y="456" text-anchor="middle">8 SecureStrings · first boot</text>

<line class="link" x1="538" y1="496" x2="714" y2="572" marker-end="url(#ah1)"/>
<text class="t-lab" x="627" y="528" text-anchor="middle">metrics + nginx / app logs</text>

<rect class="box-2" x="64" y="832" width="1032" height="52"/>
<text class="t-frame" x="80" y="852">ACCOUNT-WIDE, NOT ON THE REQUEST PATH</text>
<text class="t-sub" x="80" y="872">CloudTrail — multi-region, log-file validation, dedicated encrypted bucket   ·   AWS Budgets — $35/mo threshold, currently exceeded every month</text>
</svg>
